<svg width="33" height="34" viewBox="0 0 33 34" fill="none" xmlns="http://www.w3.org/2000/svg">
<path d="M16.4587 3.25C8.86874 3.25 2.70874 9.41 2.70874 17C2.70874 24.59 8.86874 30.75 16.4587 30.75C24.0487 30.75 30.2087 24.59 30.2087 17C30.2087 9.41 24.0625 3.25 16.4587 3.25ZM23.925 23.0913C22.2337 25.525 19.4562 26.9688 16.5 26.9688C13.5437 26.9688 10.7662 25.525 9.07499 23.0913C8.74499 22.6238 8.86874 21.9775 9.33624 21.6613C9.80374 21.3313 10.45 21.455 10.7662 21.9225C12.0725 23.7925 14.2175 24.92 16.5 24.92C18.7825 24.92 20.9275 23.8062 22.2337 21.9225C22.5637 21.455 23.1962 21.345 23.6637 21.6613C24.145 21.9775 24.255 22.6238 23.925 23.0913Z" fill="#2995E2"/>
</svg>
